<?xml version="1.0" encoding="UTF-8"?>
<!DOCTYPE svg PUBLIC "-//W3C//DTD SVG 1.1//EN" "http://www.w3.org/Graphics/SVG/1.1/DTD/svg11.dtd">
<svg xmlns="http://www.w3.org/2000/svg" version="1.1" viewBox="0 0 81 81" stroke="none">
	<rect width="100%" height="100%" fill="#ffffff"/>
	<path d="M20,20h7v1h-7z M29,20h1v1h-1z M31,20h1v1h-1z M33,20h1v1h-1z M37,20h9v1h-9z M48,20h5v1h-5z M54,20h7v1h-7z M20,21h1v6h-1z M26,21h1v6h-1z M34,21h4v1h-4z M40,21h2v3h-2z M46,21h2v1h-2z M50,21h1v1h-1z M52,21h1v3h-1z M54,21h1v6h-1z M60,21h1v6h-1z M22,22h3v3h-3z M28,22h1v6h-1z M29,22h2v1h-2z M33,22h3v1h-3z M37,22h2v1h-2z M42,22h1v1h-1z M48,22h1v2h-1z M56,22h3v3h-3z M30,23h1v1h-1z M33,23h1v1h-1z M35,23h1v3h-1z M39,23h1v2h-1z M44,23h2v3h-2z M46,23h1v1h-1z M29,24h1v1h-1z M31,24h1v2h-1z M36,24h1v1h-1z M38,24h1v1h-1z M41,24h3v1h-3z M49,24h3v1h-3z M34,25h1v6h-1z M40,25h1v8h-1z M41,25h1v1h-1z M46,25h2v1h-2z M52,25h1v3h-1z M21,26h5v1h-5z M30,26h1v1h-1z M32,26h1v1h-1z M36,26h1v1h-1z M38,26h1v1h-1z M42,26h1v3h-1z M44,26h1v3h-1z M46,26h1v1h-1z M48,26h1v2h-1z M50,26h1v2h-1z M55,26h5v1h-5z M41,27h1v1h-1z M20,28h1v1h-1z M22,28h5v1h-5z M30,28h1v1h-1z M33,28h1v1h-1z M35,28h1v1h-1z M37,28h1v1h-1z M45,28h3v1h-3z M49,28h1v1h-1z M54,28h5v1h-5z M23,29h1v1h-1z M25,29h1v1h-1z M27,29h1v1h-1z M29,29h1v1h-1z M31,29h1v1h-1z M39,29h1v1h-1z M43,29h1v1h-1z M50,29h3v1h-3z M54,29h1v1h-1z M56,29h1v3h-1z M58,29h1v1h-1z M20,30h1v6h-1z M24,30h1v2h-1z M26,30h1v1h-1z M28,30h1v4h-1z M30,30h1v1h-1z M32,30h2v2h-2z M37,30h2v1h-2z M42,30h1v1h-1z M47,30h1v2h-1z M49,30h2v1h-2z M52,30h2v2h-2z M55,30h1v2h-1z M21,31h2v1h-2z M25,31h1v1h-1z M27,31h1v2h-1z M29,31h1v1h-1z M31,31h1v1h-1z M35,31h1v1h-1z M39,31h1v2h-1z M41,31h1v1h-1z M43,31h1v1h-1z M46,31h1v1h-1z M48,31h1v1h-1z M50,31h2v1h-2z M57,31h1v2h-1z M59,31h1v1h-1z M21,32h1v1h-1z M26,32h1v1h-1z M30,32h1v1h-1z M34,32h1v1h-1z M37,32h1v1h-1z M44,32h2v1h-2z M49,32h1v3h-1z M51,32h2v2h-2z M58,32h1v2h-1z M22,33h3v1h-3z M29,33h1v2h-1z M32,33h1v2h-1z M36,33h1v1h-1z M38,33h1v1h-1z M41,33h2v1h-2z M45,33h2v1h-2z M48,33h1v1h-1z M50,33h1v1h-1z M54,33h1v1h-1z M56,33h1v3h-1z M60,33h1v1h-1z M23,34h1v3h-1z M26,34h2v1h-2z M34,34h2v3h-2z M40,34h1v1h-1z M43,34h1v4h-1z M44,34h1v1h-1z M47,34h1v3h-1z M53,34h1v1h-1z M59,34h1v1h-1z M25,35h1v2h-1z M27,35h2v1h-2z M30,35h1v2h-1z M41,35h2v1h-2z M48,35h1v1h-1z M50,35h1v1h-1z M52,35h1v3h-1z M54,35h1v1h-1z M57,35h1v2h-1z M22,36h1v1h-1z M24,36h1v1h-1z M26,36h2v1h-2z M29,36h1v1h-1z M33,36h1v1h-1z M37,36h2v1h-2z M42,36h1v1h-1z M44,36h3v1h-3z M49,36h1v1h-1z M53,36h1v1h-1z M55,36h1v2h-1z M58,36h2v1h-2z M20,37h2v4h-2z M28,37h1v2h-1z M31,37h2v1h-2z M36,37h1v1h-1z M38,37h3v1h-3z M44,37h1v2h-1z M46,37h1v9h-1z M50,37h1v3h-1z M51,37h1v1h-1z M54,37h1v1h-1z M56,37h1v3h-1z M59,37h2v1h-2z M22,38h3v1h-3z M26,38h2v1h-2z M29,38h1v1h-1z M32,38h1v2h-1z M35,38h1v2h-1z M38,38h1v1h-1z M40,38h1v1h-1z M42,38h1v1h-1z M47,38h1v1h-1z M49,38h1v1h-1z M58,38h1v1h-1z M27,39h1v1h-1z M33,39h2v1h-2z M51,39h1v1h-1z M22,40h1v3h-1z M23,40h1v1h-1z M25,40h2v1h-2z M34,40h1v2h-1z M38,40h1v1h-1z M41,40h3v1h-3z M45,40h1v1h-1z M47,40h1v1h-1z M49,40h1v3h-1z M53,40h1v1h-1z M55,40h1v3h-1z M57,40h2v1h-2z M60,40h1v2h-1z M24,41h1v4h-1z M27,41h3v1h-3z M35,41h1v3h-1z M39,41h1v1h-1z M43,41h2v1h-2z M48,41h1v1h-1z M50,41h2v1h-2z M54,41h1v1h-1z M56,41h1v3h-1z M59,41h1v1h-1z M20,42h1v2h-1z M25,42h2v1h-2z M30,42h4v1h-4z M37,42h2v1h-2z M40,42h3v1h-3z M44,42h2v1h-2z M47,42h1v1h-1z M52,42h2v1h-2z M58,42h1v1h-1z M21,43h1v3h-1z M23,43h1v3h-1z M27,43h4v2h-4z M36,43h1v6h-1z M38,43h1v1h-1z M41,43h3v1h-3z M53,43h2v1h-2z M57,43h1v1h-1z M22,44h1v1h-1z M25,44h2v1h-2z M32,44h3v1h-3z M37,44h1v1h-1z M40,44h1v1h-1z M42,44h4v1h-4z M47,44h1v1h-1z M49,44h1v1h-1z M58,44h2v1h-2z M27,45h1v3h-1z M30,45h1v1h-1z M33,45h1v3h-1z M38,45h2v1h-2z M41,45h1v3h-1z M43,45h1v1h-1z M48,45h1v2h-1z M50,45h2v1h-2z M53,45h2v1h-2z M56,45h1v3h-1z M57,45h1v1h-1z M59,45h2v1h-2z M20,46h1v2h-1z M24,46h2v2h-2z M26,46h1v1h-1z M32,46h1v2h-1z M38,46h1v1h-1z M40,46h1v1h-1z M44,46h2v1h-2z M47,46h1v3h-1z M49,46h1v1h-1z M52,46h2v1h-2z M22,47h2v1h-2z M30,47h2v1h-2z M34,47h1v2h-1z M39,47h1v1h-1z M43,47h1v2h-1z M50,47h2v3h-2z M52,47h1v1h-1z M54,47h2v1h-2z M57,47h1v3h-1z M60,47h1v1h-1z M23,48h1v1h-1z M26,48h1v1h-1z M28,48h3v1h-3z M37,48h2v1h-2z M44,48h2v1h-2z M48,48h2v2h-2z M55,48h1v2h-1z M58,48h2v1h-2z M20,49h1v4h-1z M22,49h1v3h-1z M24,49h1v1h-1z M28,49h1v1h-1z M33,49h1v1h-1z M35,49h1v1h-1z M40,49h2v1h-2z M44,49h1v1h-1z M46,49h1v2h-1z M52,49h3v4h-3z M56,49h1v8h-1z M60,49h1v1h-1z M23,50h1v1h-1z M25,50h3v1h-3z M30,50h1v1h-1z M32,50h1v1h-1z M36,50h1v2h-1z M39,50h1v4h-1z M42,50h1v1h-1z M47,50h1v3h-1z M49,50h1v1h-1z M59,50h1v1h-1z M24,51h2v2h-2z M27,51h2v2h-2z M33,51h2v2h-2z M35,51h1v1h-1z M40,51h2v1h-2z M43,51h2v1h-2z M48,51h1v6h-1z M50,51h2v1h-2z M55,51h1v2h-1z M57,51h1v3h-1z M26,52h1v1h-1z M30,52h3v1h-3z M37,52h1v4h-1z M38,52h1v1h-1z M42,52h1v1h-1z M44,52h3v1h-3z M49,52h1v1h-1z M51,52h1v4h-1z M58,52h1v1h-1z M28,53h1v1h-1z M30,53h1v1h-1z M32,53h1v3h-1z M35,53h1v2h-1z M40,53h2v4h-2z M43,53h1v1h-1z M50,53h1v2h-1z M52,53h1v5h-1z M60,53h1v1h-1z M20,54h7v1h-7z M29,54h1v1h-1z M31,54h1v2h-1z M45,54h1v1h-1z M47,54h1v3h-1z M54,54h1v1h-1z M58,54h2v1h-2z M20,55h1v6h-1z M26,55h1v6h-1z M28,55h1v4h-1z M30,55h1v2h-1z M33,55h2v1h-2z M36,55h1v4h-1z M38,55h2v1h-2z M42,55h1v1h-1z M59,55h1v1h-1z M22,56h3v3h-3z M29,56h1v2h-1z M43,56h4v2h-4z M49,56h1v1h-1z M53,56h1v4h-1z M54,56h2v1h-2z M57,56h2v1h-2z M60,56h1v2h-1z M37,57h2v2h-2z M39,57h1v1h-1z M41,57h2v3h-2z M55,57h1v2h-1z M58,57h2v1h-2z M31,58h1v1h-1z M34,58h1v1h-1z M47,58h5v1h-5z M54,58h1v1h-1z M56,58h1v3h-1z M29,59h1v2h-1z M33,59h1v2h-1z M35,59h1v1h-1z M37,59h1v2h-1z M39,59h2v2h-2z M43,59h1v1h-1z M47,59h2v1h-2z M52,59h1v1h-1z M57,59h1v1h-1z M59,59h1v1h-1z M21,60h5v1h-5z M28,60h1v1h-1z M31,60h2v1h-2z M34,60h1v1h-1z M36,60h1v1h-1z M42,60h1v1h-1z M44,60h2v1h-2z M47,60h1v1h-1z M49,60h1v1h-1z M51,60h1v1h-1z M54,60h2v1h-2z M58,60h1v1h-1z" fill="#000000"/>
</svg>
