<?xml version="1.0" encoding="UTF-8"?>
<!DOCTYPE svg PUBLIC "-//W3C//DTD SVG 1.1//EN" "http://www.w3.org/Graphics/SVG/1.1/DTD/svg11.dtd">
<svg xmlns="http://www.w3.org/2000/svg" version="1.1" viewBox="0 0 73 73" stroke="none">
	<rect width="100%" height="100%" fill="#ffffff"/>
	<path d="M20,20h7v1h-7z M30,20h4v1h-4z M37,20h1v1h-1z M39,20h1v1h-1z M41,20h4v1h-4z M46,20h7v1h-7z M20,21h1v6h-1z M26,21h1v6h-1z M29,21h2v1h-2z M32,21h4v1h-4z M44,21h1v1h-1z M46,21h1v6h-1z M52,21h1v6h-1z M22,22h3v3h-3z M28,22h1v6h-1z M29,22h1v1h-1z M33,22h1v1h-1z M38,22h6v1h-6z M48,22h3v3h-3z M30,23h1v1h-1z M34,23h4v1h-4z M42,23h2v1h-2z M31,24h3v1h-3z M35,24h1v2h-1z M38,24h4v1h-4z M43,24h1v1h-1z M31,25h1v1h-1z M33,25h2v1h-2z M36,25h1v2h-1z M41,25h1v1h-1z M44,25h1v7h-1z M21,26h5v1h-5z M30,26h1v3h-1z M32,26h1v1h-1z M34,26h1v1h-1z M38,26h1v4h-1z M40,26h1v3h-1z M42,26h1v1h-1z M47,26h5v1h-5z M35,27h1v2h-1z M41,27h1v1h-1z M20,28h1v1h-1z M22,28h3v2h-3z M25,28h2v1h-2z M29,28h1v1h-1z M31,28h4v1h-4z M36,28h1v4h-1z M37,28h1v1h-1z M46,28h5v1h-5z M21,29h1v1h-1z M27,29h2v1h-2z M31,29h1v1h-1z M39,29h1v1h-1z M43,29h1v1h-1z M45,29h3v1h-3z M49,29h2v1h-2z M52,29h1v1h-1z M20,30h1v7h-1z M22,30h1v1h-1z M24,30h3v1h-3z M29,30h1v2h-1z M32,30h1v2h-1z M35,30h1v4h-1z M42,30h1v3h-1z M45,30h1v2h-1z M48,30h1v3h-1z M50,30h2v2h-2z M23,31h1v1h-1z M25,31h1v1h-1z M27,31h1v4h-1z M28,31h1v1h-1z M30,31h1v3h-1z M34,31h1v1h-1z M39,31h1v1h-1z M41,31h1v1h-1z M49,31h1v3h-1z M22,32h1v1h-1z M26,32h1v1h-1z M37,32h1v3h-1z M40,32h1v2h-1z M47,32h1v1h-1z M51,32h2v2h-2z M28,33h1v1h-1z M31,33h1v5h-1z M33,33h2v1h-2z M36,33h1v1h-1z M39,33h1v1h-1z M43,33h1v1h-1z M45,33h2v1h-2z M21,34h1v1h-1z M23,34h2v1h-2z M26,34h1v1h-1z M32,34h1v3h-1z M34,34h1v1h-1z M42,34h1v1h-1z M50,34h2v1h-2z M22,35h1v3h-1z M24,35h1v4h-1z M30,35h1v2h-1z M33,35h1v1h-1z M36,35h1v1h-1z M40,35h2v1h-2z M44,35h2v1h-2z M48,35h1v2h-1z M50,35h1v1h-1z M23,36h1v2h-1z M26,36h1v1h-1z M28,36h2v2h-2z M37,36h1v1h-1z M40,36h1v1h-1z M47,36h1v2h-1z M49,36h1v2h-1z M52,36h1v2h-1z M33,37h1v2h-1z M36,37h1v1h-1z M39,37h1v1h-1z M41,37h6v1h-6z M50,37h1v3h-1z M20,38h1v2h-1z M25,38h2v1h-2z M28,38h1v2h-1z M34,38h2v1h-2z M37,38h2v1h-2z M40,38h3v1h-3z M44,38h3v1h-3z M48,38h1v3h-1z M51,38h1v1h-1z M23,39h1v5h-1z M27,39h1v3h-1z M29,39h2v1h-2z M32,39h1v1h-1z M34,39h1v1h-1z M36,39h1v2h-1z M38,39h1v1h-1z M41,39h1v1h-1z M43,39h1v3h-1z M45,39h1v3h-1z M49,39h1v5h-1z M25,40h2v1h-2z M37,40h1v1h-1z M40,40h1v3h-1z M42,40h1v2h-1z M44,40h1v1h-1z M47,40h1v1h-1z M51,40h1v1h-1z M20,41h1v4h-1z M28,41h1v5h-1z M30,41h1v3h-1z M32,41h4v2h-4z M39,41h1v1h-1z M41,41h1v3h-1z M52,41h1v1h-1z M26,42h1v1h-1z M29,42h1v1h-1z M36,42h3v1h-3z M44,42h1v7h-1z M51,42h1v1h-1z M22,43h1v1h-1z M24,43h2v1h-2z M27,43h1v1h-1z M31,43h2v1h-2z M35,43h1v2h-1z M38,43h1v1h-1z M42,43h1v1h-1z M46,43h2v2h-2z M50,43h1v1h-1z M25,44h2v1h-2z M29,44h1v3h-1z M32,44h2v1h-2z M37,44h1v1h-1z M40,44h1v1h-1z M43,44h1v1h-1z M45,44h1v1h-1z M48,44h1v6h-1z M52,44h1v2h-1z M30,45h2v1h-2z M34,45h1v4h-1z M36,45h1v1h-1z M39,45h1v1h-1z M42,45h1v1h-1z M50,45h2v2h-2z M20,46h7v1h-7z M30,46h1v1h-1z M35,46h1v1h-1z M37,46h2v1h-2z M40,46h2v2h-2z M43,46h1v1h-1z M46,46h1v1h-1z M20,47h1v6h-1z M26,47h1v6h-1z M28,47h1v4h-1z M32,47h1v1h-1z M36,47h1v1h-1z M42,47h1v2h-1z M50,47h1v1h-1z M22,48h3v3h-3z M29,48h3v1h-3z M33,48h1v1h-1z M38,48h1v2h-1z M41,48h1v1h-1z M45,48h3v1h-3z M49,48h1v4h-1z M52,48h1v2h-1z M29,49h1v2h-1z M35,49h2v1h-2z M39,49h2v1h-2z M43,49h1v2h-1z M47,49h1v4h-1z M50,49h2v1h-2z M31,50h4v1h-4z M44,50h3v1h-3z M32,51h1v1h-1z M34,51h1v1h-1z M36,51h1v1h-1z M39,51h1v1h-1z M41,51h1v1h-1z M48,51h1v2h-1z M50,51h1v1h-1z M21,52h5v1h-5z M28,52h4v1h-4z M33,52h1v1h-1z M37,52h1v1h-1z M40,52h1v1h-1z M43,52h2v1h-2z M46,52h1v1h-1z M51,52h1v1h-1z" fill="#000000"/>
</svg>
